# xmcd
#
# Track frame offsets:
#	150
#	10982
#	23713
#	37181
#	54569
#	66189
#	77384
#	90154
#	102544
#	115795
#	129253
#	146399
#	157126
#	172597
#	186195
#	198400
#	209793
#	220170
#	238356
#	249583
#
# Disc length: 3431
#
# Revision: 1
# Processed by: cddbd v1.5.1PL0 Copyright (c) Steve Scherf et al.
# Submitted via: dBpowerAMP V4.0
# Normalized: r0:TDELIM( - ),TSWAP
#
DISCID=160d6514
DTITLE=Various Artist - 20 Best Of Country Gospel
DYEAR=2004
DGENRE=Country Gospel
TTITLE0=Ferlin Husky - On The Wings Of A Dove
TTITLE1=Oak Ridge Boys - You'll Never Walk Alone
TTITLE2=Holly Dunn - What A Friend We Have In Jesus
TTITLE3=Jack Green - Oh Happy day
TTITLE4=Porter Waggoner - What Would You Do If Jesus Came to your House
TTITLE5=Jeanne Pruett - Old Time Religion
TTITLE6=Oak Ridge Boys - In The Shelter Of His Arms
TTITLE7=Jeanne Pruett - You Don't Need To Move A Mountain
TTITLE8=Wilma Burgess - You Can't Be A Beacon If Your Light Don't Shine
TTITLE9=Tommy Cash - Amazing Grace
TTITLE10=Mac Wiseman - The Great Speckled Bird
TTITLE11=Singing Gospelaires - Turn Your Radio On
TTITLE12=David Houston - Why Me Lord
TTITLE13=Jeanne Pruett - Uncloudy Day
TTITLE14=Oak Ridge Boys - When I Lay My Burdens Down
TTITLE15=Jack Greene - Untill My Dreams Come True
TTITLE16=Mac Wiseman - When God Dips His Love In My Heart
TTITLE17=Holly Dunn - Wings Of An Angel
TTITLE18=Singing Gospelaires - I'll Fly Away
TTITLE19=Oak Ridge boys - I Asked The Loard
EXTD=
EXTT0=
EXTT1=
EXTT2=
EXTT3=
EXTT4=
EXTT5=
EXTT6=
EXTT7=
EXTT8=
EXTT9=
EXTT10=
EXTT11=
EXTT12=
EXTT13=
EXTT14=
EXTT15=
EXTT16=
EXTT17=
EXTT18=
EXTT19=
PLAYORDER=
